<svg xmlns="http://www.w3.org/2000/svg" viewBox="0 0 493.74 444.76">
  <circle id="as2-circle" cx="233.43" cy="181.8" r="105.19" style="fill: #d7dc91"/>
  <g id="as2-dog">
    <g id="as2-dog-c1">
      <line x1="420" y1="24.77" x2="327.29" y2="60.05" style="fill: #f6f6f6;stroke: #4e4d4e;stroke-linecap: round;stroke-linejoin: round;stroke-width: 8px"/>
      <circle cx="420" cy="24.77" r="13.56" transform="translate(32.7 189.12) rotate(-26.37)" style="fill: #f6f6f6;stroke: #4e4d4e;stroke-linecap: round;stroke-linejoin: round;stroke-width: 8px"/>
    </g>
    <g id="as2-dog-c2">
      <line x1="220.23" y1="45.98" x2="318.74" y2="62.25" style="fill: #f6f6f6;stroke: #4e4d4e;stroke-linejoin: round;stroke-width: 8px"/>
      <circle cx="198.8" cy="40.64" r="24.52" style="fill: none;stroke: #4e4d4e;stroke-linecap: round;stroke-linejoin: round;stroke-width: 8px"/>
    </g>
    <g id="as2-dog-c3">
      <line x1="369.61" y1="75.45" x2="410.18" y2="102.55" style="fill: #f6f6f6;stroke: #4e4d4e;stroke-linecap: round;stroke-linejoin: round;stroke-width: 8px"/>
      <circle cx="411.54" cy="103.46" r="20.32" transform="translate(-8.53 43.37) rotate(-5.97)" style="fill: #f6f6f6;stroke: #4e4d4e;stroke-linecap: round;stroke-linejoin: round;stroke-width: 8px"/>
    </g>
    <g id="as2-dog-c">
      <circle cx="318.74" cy="60.05" r="56.05" style="fill: #f6f6f6;stroke: #4e4d4e;stroke-linecap: round;stroke-linejoin: round;stroke-width: 8px"/>
      <g>
        <rect x="307.84" y="60.97" width="4.08" height="8.22" rx="2.03" ry="2.03" style="fill: #4e4d4e"/>
        <rect x="327.29" y="60.97" width="4.08" height="8.22" rx="2.03" ry="2.03" style="fill: #4e4d4e"/>
        <circle cx="319.99" cy="74.55" r="4.12" style="fill: #4e4d4e"/>
        <path d="M331.57,85.66a39.16,39.16,0,0,1-22.77.12" style="fill: none;stroke: #4e4d4e;stroke-linecap: round;stroke-linejoin: round;stroke-width: 5px"/>
        <line x1="319.99" y1="86.56" x2="319.99" y2="77.85" style="fill: none;stroke: #4e4d4e;stroke-linecap: round;stroke-linejoin: round;stroke-width: 5px"/>
        <path d="M353.78,102.44c-2.68-25-6.52-58.91-6.58-60.57-.09-2.35,3.42-9.11,2.07-9.39s-9.59-1.72-14.05-2.28c-1.49-.19-1.75,2.24-1.91,2.8-1.52,5.31-3.72,9.33-8.06,9.35s-6.66.05-12.45,0-7.8-3.51-9.66-8.87-2.86-10.28-5.83-10.28c-3.24,0-4.2,4.27-4.73,10-.23,2.42-4.66,43.73-7.42,71.25" style="fill: none;stroke: #4e4d4e;stroke-linecap: round;stroke-linejoin: round;stroke-width: 7px"/>
        <path d="M349.27,32.48c-1.4-.25-14.28-2.29-14.39-2.28,1.2,5.16,3.42,15.27,6.87,15.77S350.34,32.66,349.27,32.48Z" style="fill: none;stroke: #4e4d4e;stroke-linecap: round;stroke-linejoin: round;stroke-width: 7px"/>
      </g>
    </g>
  </g>
  <g id="as2-doc">
    <g id="as2-doc-line">
      <line x1="4" y1="131.39" x2="30.61" y2="126.61" style="fill: none;stroke: #4e4d4e;stroke-linecap: round;stroke-linejoin: round;stroke-width: 8px;"/>
      <line x1="7.02" y1="93.64" x2="32.45" y2="102.81" style="fill: none;stroke: #4e4d4e;stroke-linecap: round;stroke-linejoin: round;stroke-width: 8px"/>
      <line x1="28.26" y1="62.92" x2="45.7" y2="83.58" style="fill: none;stroke: #4e4d4e;stroke-linecap: round;stroke-linejoin: round;stroke-width: 8px"/>
      <line x1="62.18" y1="46.61" x2="66.95" y2="73.21" style="fill: none;stroke: #4e4d4e;stroke-linecap: round;stroke-linejoin: round;stroke-width: 8px"/>
      <line x1="99.36" y1="50.16" x2="90.2" y2="75.59" style="fill: none;stroke: #4e4d4e;stroke-linecap: round;stroke-linejoin: round;stroke-width: 8px"/>
      <line x1="129.96" y1="71.58" x2="109.31" y2="89.02" style="fill: none;stroke: #4e4d4e;stroke-linecap: round;stroke-linejoin: round;stroke-width: 8px"/>
      <line x1="145.92" y1="105.92" x2="119.31" y2="110.7" style="fill: none;stroke: #4e4d4e;stroke-linecap: round;stroke-linejoin: round;stroke-width: 8px"/>
    </g>
    <g id="as2-doc-d">
      <polyline points="54.25 174.36 63.54 135.63 133.57 152.44 115.06 229.56 80.36 221.23" style="fill: none;stroke: #4e4d4e;stroke-linecap: round;stroke-linejoin: round;stroke-width: 8px"/>
      <rect x="8.35" y="177.17" width="72.02" height="79.31" style="fill: none;stroke: #4e4d4e;stroke-linecap: round;stroke-linejoin: round;stroke-width: 8px"/>
      <line x1="22.57" y1="198.27" x2="63.57" y2="198.27" style="fill: none;stroke: #4e4d4e;stroke-linecap: round;stroke-linejoin: round;stroke-width: 8px"/>
      <line x1="22.57" y1="214.52" x2="44.36" y2="214.52" style="fill: none;stroke: #4e4d4e;stroke-linecap: round;stroke-linejoin: round;stroke-width: 8px"/>
    </g>
  </g>
  <g id="as2-hand">
    <path d="M244.93,299.32H204V149.69a20.47,20.47,0,0,1,40.94,0Z" style="fill: #f5f5f5"/>
    <path d="M278.81,310.28H237.87V249.91a20.47,20.47,0,1,1,40.94,0Z" style="fill: #f5f5f5"/>
    <path d="M313.4,315.86H272.46V255.49a20.47,20.47,0,1,1,40.94,0Z" style="fill: #f5f5f5"/>
    <path d="M346.87,321.44H305.93V261.07a20.47,20.47,0,0,1,40.94,0Z" style="fill: #f5f5f5"/>
    <path d="M210.75,322.56H169.82V262.19a20.47,20.47,0,0,1,40.94,0Z" style="fill: #f5f5f5"/>
    <path d="M244.93,299.32h-7.06V149.69a13.41,13.41,0,0,0-26.82,0V299.32H204V149.69a20.47,20.47,0,0,1,40.94,0Z" style="fill: #4e4d4e"/>
    <path d="M278.8,249.73a20.46,20.46,0,0,0-40.92,0h0v60.88a20.47,20.47,0,1,0,40.94,0h0V249.73Zm-7,60.88a13.41,13.41,0,1,1-26.82,0v-60.7a13.41,13.41,0,1,1,26.82,0Z" style="fill: #4e4d4e"/>
    <path d="M326.54,240.65a20.49,20.49,0,0,0-20.47,20.47h7.06a13.41,13.41,0,0,1,26.82,0v49.41a13.41,13.41,0,0,1-26.82,0V261.12h-7.06v49.41h0a20.47,20.47,0,0,0,40.94,0V261.12A20.49,20.49,0,0,0,326.54,240.65Z" style="fill: #4e4d4e"/>
    <path d="M292.54,235.09a20.49,20.49,0,0,0-20.47,20.47v55.05a20.47,20.47,0,1,0,40.94,0V255.56A20.49,20.49,0,0,0,292.54,235.09Zm0,88.93a13.43,13.43,0,0,1-13.41-13.41V255.56a13.41,13.41,0,1,1,26.82,0v55.05A13.43,13.43,0,0,1,292.54,324Z" style="fill: #4e4d4e"/>
    <path d="M338.1,319.08v61.06c0,29.66-21,50.76-48.61,56.84v7.2c31.53-6.34,55.67-30.48,55.67-64V319.08Z" style="fill: #4e4d4e"/>
    <path d="M237.87,437.57c-35.4-7.8-60.7-32.76-60.7-71.9V261.21a13.41,13.41,0,0,1,26.82,0v71.29h3.53a64.3,64.3,0,0,1,64.23,64.23h7.06a71.37,71.37,0,0,0-67.76-71.2V261.21a20.47,20.47,0,1,0-40.94,0V365.66c0,43.07,28.4,70.94,67.76,79.09Z" style="fill: #4e4d4e"/>
  </g>
  <g id="as2-talk">
    <path d="M450.93,168.57H412.8A38.92,38.92,0,0,0,374,207.38h0a38.93,38.93,0,0,0,36.76,38.75v18.64l19.65-18.59h20.53a38.92,38.92,0,0,0,38.81-38.81h0A38.92,38.92,0,0,0,450.93,168.57Z" style="fill: none;stroke: #4e4d4e;stroke-linecap: round;stroke-linejoin: round;stroke-width: 8px"/>
    <line x1="409.94" y1="194.06" x2="451.94" y2="194.06" style="fill: none;stroke: #4e4d4e;stroke-linecap: round;stroke-linejoin: round;stroke-width: 8px"/>
    <line x1="401.73" y1="210.46" x2="422.73" y2="210.46" style="fill: none;stroke: #4e4d4e;stroke-linecap: round;stroke-linejoin: round;stroke-width: 8px"/>
  </g>
</svg>
