<svg xmlns="http://www.w3.org/2000/svg" viewBox="0 0 493.74 454.69">
  <circle id="as5-circle" cx="253.27" cy="205.6" r="203.1" style="fill: none;stroke: #4f4e4e;stroke-linecap: round;stroke-miterlimit: 2;stroke-width: 5px;stroke-dasharray: 6,12"/>
  <g id="as5-upload">
    <g>
      <path d="M182,142H321.66a10.5,10.5,0,0,1,10.5,10.5v91a10.49,10.49,0,0,1-10.49,10.49H182a10.5,10.5,0,0,1-10.5-10.5v-91A10.49,10.49,0,0,1,182,142Z" style="fill: #f6f6f6;stroke: #4e4d4e;stroke-linecap: round;stroke-linejoin: round;stroke-width: 8px"/>
      <polygon points="235.62 169.46 235.62 226.48 275.54 197.97 235.62 169.46" style="fill: #f6f6f6;stroke: #4e4d4e;stroke-linecap: round;stroke-linejoin: round;stroke-width: 8px"/>
    </g>
    <g id="as5-upload-c">
      <circle cx="329.04" cy="238.25" r="36.43" style="fill: #d7dc91;stroke: #4e4d4e;stroke-linecap: round;stroke-linejoin: round;stroke-width: 8px"/>
      <g>
        <line x1="329.04" y1="225.44" x2="329.04" y2="253.98" style="fill: none;stroke: #4e4d4e;stroke-linecap: round;stroke-linejoin: round;stroke-width: 8px"/>
        <polyline points="315.43 236.13 329.04 222.52 342.65 236.13" style="fill: none;stroke: #4e4d4e;stroke-linecap: round;stroke-linejoin: round;stroke-width: 8px"/>
      </g>
    </g>
  </g>
  <g id="as5-like1">
    <g>
      <path d="M96.35,302.75V250.08a2.53,2.53,0,0,0-2.53-2.53H6.53A2.53,2.53,0,0,0,4,250.08v52.67Z" style="fill: #f6f6f6;stroke: #4e4d4e;stroke-linecap: round;stroke-linejoin: round;stroke-width: 8px"/>
      <rect x="40.41" y="302.75" width="19.53" height="13.6" style="fill: #f6f6f6;stroke: #4e4d4e;stroke-linecap: round;stroke-linejoin: round;stroke-width: 8px"/>
      <line x1="34.99" y1="316.35" x2="68.68" y2="316.35" style="fill: none;stroke: #4e4d4e;stroke-linecap: round;stroke-linejoin: round;stroke-width: 8px"/>
    </g>
    <line x1="58.36" y1="265.04" x2="49.18" y2="274.21" style="fill: none;stroke: #4e4d4e;stroke-linecap: round;stroke-linejoin: round;stroke-width: 8px"/>
    <line x1="74.53" y1="270.67" x2="60.55" y2="284.66" style="fill: none;stroke: #4e4d4e;stroke-linecap: round;stroke-linejoin: round;stroke-width: 8px"/>
  </g>
  <g id="as5-like2">
    <g>
      <path d="M273.49,400.32A9.84,9.84,0,0,0,271,398a10,10,0,0,0,1.67-11.72,9.87,9.87,0,0,0-4.09-4,10.12,10.12,0,0,0-.94-10.72A10,10,0,0,0,254.92,369a10.25,10.25,0,0,0-2.63-4.05,10.06,10.06,0,0,0-13-.43l-1.55,1.22a8.6,8.6,0,0,0-2.05-2.81,10.06,10.06,0,0,0-13-.43l-15.4,12a9.17,9.17,0,0,0-5.73-5.35,9.86,9.86,0,0,0-8,.6,10.56,10.56,0,0,0-3,2.44,9.45,9.45,0,0,0-5.6-5.21,9.8,9.8,0,0,0-12.9,7l0,.53L169.87,407a11,11,0,0,1-4.05,6.22,6.14,6.14,0,0,0-2.46,4.48,6.84,6.84,0,0,0,1.37,4.89l21.52,27.54a6.14,6.14,0,0,0,4.48,2.46l.4,0a6.81,6.81,0,0,0,4.63-1.39l1.27-1a14.22,14.22,0,0,1,3.06-1.77l2.79,3.67a6.14,6.14,0,0,0,4.48,2.46l.4,0a6.8,6.8,0,0,0,4.63-1.39l1.27-1a12.16,12.16,0,0,1,4.55-2.19,51.06,51.06,0,0,0,18.62-8.87l35-27.08A10,10,0,0,0,273.49,400.32Z" style="fill: #f6f6f6"/>
      <path d="M273.49,400.32A9.84,9.84,0,0,0,271,398a10,10,0,0,0,1.67-11.72,9.88,9.88,0,0,0-4.09-4,10.12,10.12,0,0,0-.94-10.72A10,10,0,0,0,254.92,369a10.25,10.25,0,0,0-2.63-4.05h0a10.06,10.06,0,0,0-13-.43l-1.55,1.22a8.6,8.6,0,0,0-2.05-2.81h0a10.06,10.06,0,0,0-13-.43l-15.4,12a9.17,9.17,0,0,0-5.73-5.35,9.87,9.87,0,0,0-8,.6,10.56,10.56,0,0,0-3,2.44,9.45,9.45,0,0,0-5.6-5.21,9.8,9.8,0,0,0-12.9,7l0,.53L169.87,407a11,11,0,0,1-4.05,6.22,6.14,6.14,0,0,0-2.46,4.48,6.84,6.84,0,0,0,1.37,4.89l21.52,27.54a6.14,6.14,0,0,0,4.48,2.46l.4,0a6.8,6.8,0,0,0,4.63-1.39l1.27-1a14.21,14.21,0,0,1,3.06-1.77l2.79,3.67a6.14,6.14,0,0,0,4.48,2.46l.4,0a6.8,6.8,0,0,0,4.63-1.39l1.27-1a12.16,12.16,0,0,1,4.55-2.19,51.06,51.06,0,0,0,18.62-8.87l35-27.08A10,10,0,0,0,273.49,400.32Zm-46.83-32.48a3.28,3.28,0,0,1,4.39.06,3.43,3.43,0,0,1,1,2.34v.13l-21.6,16.77a1.43,1.43,0,0,1-.95.2,1,1,0,0,1-.61-.71l-.61-4.3Zm-33.95,77.46-1.4,1L169.81,418.6a17.86,17.86,0,0,0,6.48-10.3l0-.53,2-32.32a2.78,2.78,0,0,1,1.6-1.88,3.13,3.13,0,0,1,2.68-.2,3.44,3.44,0,0,1,2.16,3.22,20.49,20.49,0,0,0,.24,4l.71,4.84a7.47,7.47,0,0,0,2,4l-1.19,19.61a11,11,0,0,1-4.05,6.22,6.14,6.14,0,0,0-2.46,4.48,6.84,6.84,0,0,0,1.37,4.89l14.46,18.64A24.41,24.41,0,0,0,192.71,445.31Zm75-36.37-35,27.35c-.13,0-7.48,5.83-16,7.6a18.59,18.59,0,0,0-7.31,3.45l-1.4,1-21.51-27.67a17.86,17.86,0,0,0,6.48-10.3l0-.53,2-32.32a2.78,2.78,0,0,1,1.6-1.88,3.13,3.13,0,0,1,2.68-.2,3.44,3.44,0,0,1,2.16,3.22,20.49,20.49,0,0,0,.24,4l.71,4.84a7.69,7.69,0,0,0,12.28,4.9l28.68-22.5a3.28,3.28,0,0,1,4.39.06,3.43,3.43,0,0,1,1,2.34,2.86,2.86,0,0,1-.83,2.2c-.57.49-3.82,3-18.36,14.34l-.56.36a3.29,3.29,0,1,0,4,5.22l24.72-19.33.14-.12a3.13,3.13,0,0,1,4.34.72,3.17,3.17,0,0,1-.6,4.48l-23.47,18.62c-.85.74-1.41,1.09-1.7,1.34h0a3.29,3.29,0,1,0,4,5.22l.28-.25c2.4-1.82,20.06-15.68,21.47-16.77a3.08,3.08,0,0,1,2.42-.35,2.77,2.77,0,0,1,2,1.61,3.44,3.44,0,0,1-1,4.19l-21.18,16.53a3.29,3.29,0,0,0,4,5.22l1.27-1c8.62-6.81,13.42-10.45,14.13-11.06a3.36,3.36,0,0,1,3.85,5.48Z" style="fill: #4e4d4e"/>
    </g>
    <g>
      <line x1="280.76" y1="333.13" x2="272.25" y2="348.69" style="fill: none;stroke: #4e4d4e;stroke-linecap: round;stroke-linejoin: round;stroke-width: 8px"/>
      <line x1="298.3" y1="350.25" x2="283.14" y2="359.47" style="fill: none;stroke: #4e4d4e;stroke-linecap: round;stroke-linejoin: round;stroke-width: 8px"/>
      <line x1="305.12" y1="373.79" x2="287.38" y2="374.2" style="fill: none;stroke: #4e4d4e;stroke-linecap: round;stroke-linejoin: round;stroke-width: 8px"/>
      <line x1="256.71" y1="327.5" x2="257.12" y2="345.24" style="fill: none;stroke: #4e4d4e;stroke-linecap: round;stroke-linejoin: round;stroke-width: 8px"/>
    </g>
  </g>
  <path id="as5-like3" d="M465.83,265.93c-10.47-2.61-19.52,9.34-19.52,9.34s-9.06-11.95-19.52-9.34-18.64,13.85-7.7,32.88c7.47,13,21.67,22,27.23,24.34,5.56-2.36,19.76-11.33,27.23-24.34C484.47,279.78,476.29,268.54,465.83,265.93Z" style="fill: #f6f6f6;stroke: #4e4d4e;stroke-linecap: round;stroke-linejoin: round;stroke-width: 8px"/>
  <g id="as5-like4">
    <g>
      <path d="M427.81,125.8l18.54-1.06a9.14,9.14,0,0,0,8.58-9.62l-2.51-44A2.29,2.29,0,0,0,450,69L424.65,70.4a3.33,3.33,0,0,0-1,.29c-5.5-2.31-15.52-8-15.88-14.27-.27-4.66-1.59-7.78-4-9.25a5.6,5.6,0,0,0-5.06-.62,10.67,10.67,0,0,0-6.31,5.5c-2.36,4.59-2.13,10.74.49,18.57l-11.26.64-.57,0-11.49.66A8.09,8.09,0,0,0,366,87.1a8.18,8.18,0,0,0,2.83,11.59,8.18,8.18,0,0,0,4.47,12.3,8.53,8.53,0,0,0-.9,4.16,8.15,8.15,0,0,0,8.65,7.61l1.71-.1,10.35-.59,20.82-1.19a23.45,23.45,0,0,0,8.89-2.22c.78-.39,1.55-.89,2.21-1.27l.36,6.26A2.29,2.29,0,0,0,427.81,125.8Z" style="fill: #f6f6f6;stroke: #4e4d4e;stroke-linecap: round;stroke-linejoin: round;stroke-width: 8px"/>
      <line x1="366.03" y1="87.1" x2="380.74" y2="86" style="fill: none;stroke: #4e4d4e;stroke-linecap: round;stroke-linejoin: round;stroke-width: 8px"/>
      <line x1="368.86" y1="98.69" x2="382.69" y2="97.92" style="fill: none;stroke: #4e4d4e;stroke-linecap: round;stroke-linejoin: round;stroke-width: 8px"/>
      <line x1="373.32" y1="110.99" x2="385.72" y2="110.25" style="fill: none;stroke: #4e4d4e;stroke-linecap: round;stroke-linejoin: round;stroke-width: 8px"/>
      <line x1="423.64" y1="70.69" x2="425.05" y2="117.4" style="fill: none;stroke: #4e4d4e;stroke-linecap: round;stroke-linejoin: round;stroke-width: 8px"/>
    </g>
    <path d="M476.61,59S472.34,35.2,489.74,30.2c0,0-17.39.8-22-18.79,0,0,2.4,22-12.8,25.59C454.95,37,472.34,38.2,476.61,59Z" style="fill: #f6f6f6;stroke: #4e4d4e;stroke-linecap: round;stroke-linejoin: round;stroke-width: 8px"/>
  </g>
  <g id="as5-like5">
    <path d="M72.9,37.61h53.78A30.52,30.52,0,0,1,157.12,68v4a30.52,30.52,0,0,1-30.43,30.43h-9.83l5.9,21.91L98.45,102.48H72.9A30.52,30.52,0,0,1,42.47,72V68A30.52,30.52,0,0,1,72.9,37.61Z" style="fill: #d7dc91;stroke: #4e4d4e;stroke-linecap: round;stroke-linejoin: round;stroke-width: 8px"/>
    <g>
      <polyline points="62.02 56.51 62.02 80.34 75.68 80.34" style="fill: none;stroke: #4e4d4e;stroke-linecap: round;stroke-linejoin: round;stroke-width: 6px"/>
      <line x1="85.92" y1="56.72" x2="85.92" y2="79.34" style="fill: none;stroke: #4e4d4e;stroke-linecap: round;stroke-linejoin: round;stroke-width: 6px"/>
      <g>
        <line x1="99.87" y1="56.72" x2="99.87" y2="79.34" style="fill: none;stroke: #4e4d4e;stroke-linecap: round;stroke-linejoin: round;stroke-width: 6px"/>
        <polyline points="115.14 56.72 100.53 67.53 115.14 78.35" style="fill: none;stroke: #4e4d4e;stroke-linecap: round;stroke-linejoin: round;stroke-width: 6px"/>
      </g>
      <g>
        <polyline points="137.22 56.72 126.26 56.72 126.26 69.36 126.26 81 137.22 81" style="fill: none;stroke: #4e4d4e;stroke-linecap: round;stroke-linejoin: round;stroke-width: 6px"/>
        <line x1="137.22" y1="68.37" x2="126.26" y2="68.37" style="fill: none;stroke: #4e4d4e;stroke-linecap: round;stroke-linejoin: round;stroke-width: 6px"/>
      </g>
    </g>
  </g>
</svg>
