<svg xmlns="http://www.w3.org/2000/svg" viewBox="0 0 573.37 457.27">
  <defs>
    <clipPath id="as1-clip"><rect x="110" y="82" width="350" height="240"></rect></clipPath>
  </defs>
  <g id="as1-dog" clip-path="url(#as1-clip)">
    <path d="M284.76,277.65a98.17,98.17,0,0,1-28.21-4.12,3,3,0,0,1,1.72-5.75,92.66,92.66,0,0,0,53.87-.27,3,3,0,0,1,1.78,5.73A98.1,98.1,0,0,1,284.76,277.65Z" style="fill: #4f5250"/>
    <rect x="255.07" y="207.96" width="8.5" height="17.11" rx="4.25" ry="4.25" style="fill: #4e4d4e"/>
    <rect x="304.07" y="207.96" width="8.5" height="17.11" rx="4.25" ry="4.25" style="fill: #4e4d4e"/>
    <circle cx="284.76" cy="247.39" r="8.67" style="fill: #4f5250"/>
    <path d="M284.76,277.65a3,3,0,0,1-3-3V253.38a3,3,0,1,1,6,0v21.27A3,3,0,0,1,284.76,277.65Z" style="fill: #4f5250"/>
    <path d="M338.32,175.33a6.89,6.89,0,0,1-1-.07c-10-1.45-15.06-19.84-19.78-40.2l-.32-1.37a4,4,0,0,1,3.28-4.86c1.49-.27,36.12,5.51,36.46,5.57,1,.18,4.37,1.2,3.5,6.67C359.69,146,350,175.33,338.32,175.33Zm-12-37.72a172.54,172.54,0,0,0,5.15,18.17c3.59,9.91,6.26,11.33,6.84,11.53,1-.35,4.28-3.18,8.74-12.49a81.2,81.2,0,0,0,5-13.11C345.94,140.7,333.62,138.74,326.37,137.61Zm29.22,4.67h0Z" style="fill: #4e4d4e"/>
    <path d="M210.11,324.64H198.21a18.3,18.3,0,1,1,0-36.6h11.89a18.3,18.3,0,1,1,0,36.6ZM198.21,296a10.3,10.3,0,1,0,0,20.6h11.89a10.3,10.3,0,1,0,0-20.6Z" style="fill: #4e4d4e"/>
    <path d="M359.3,324.64h-11.9a18.3,18.3,0,1,1,0-36.6h11.9a18.3,18.3,0,0,1,0,36.6ZM347.41,296a10.3,10.3,0,1,0,0,20.6h11.9a10.3,10.3,0,0,0,0-20.6Z" style="fill: #4e4d4e"/>
    <path d="M215,293l2-44.26c2.35-52.67,4.58-102.42,4.82-108.51s1.49-20.58,7.57-20.58c3.14,0,5.74,8,8.25,15.74.7,2.15,1.42,4.38,2.22,6.68,4.25,12.24,9.85,24.2,27.34,24.36,12.78.12,18.61.08,27.43,0l3.06,0c6.94,0,16.93-2.76,23.51-25.75.07-.26.16-.64.26-1.1a14.62,14.62,0,0,1,.79-2.78c9.17,1.2,24,3.73,30.51,4.91-.51,1.89-1.45,4.59-2.15,6.58-1.77,5.05-3.44,9.82-3.3,13.12.3,7.41,3.57,70.25,6.76,131.49h4.61a13.28,13.28,0,0,1,3.43.46c-3.06-58.65-6.51-124.88-6.81-132.27-.07-1.77,1.62-6.62,2.86-10.16,2.64-7.56,3.84-11.33,2.23-14.18a4.77,4.77,0,0,0-3.22-2.35c-3.22-.67-23.58-4.23-34.63-5.63-4.5-.57-7.49,2.51-8.9,9.15,0,.23-.09.42-.12.55-4,13.94-8.74,19.91-15.87,20l-3.06,0c-8.78.06-14.59.1-27.3,0-11.32-.1-15.42-6.2-19.86-19-.77-2.23-1.48-4.42-2.17-6.53-3.71-11.41-6.91-21.27-15.86-21.27h0c-9.57,0-14.8,9.51-15.56,28.25-.25,6.08-2.47,55.82-4.82,108.48L207,292h2.84A14.1,14.1,0,0,1,215,293Z" style="fill: #4e4d4e"/>
  </g>
  <rect x="424.5" y="143.7" width="144.87" height="257.4" rx="17.12" ry="17.12" style="fill: none;stroke: #4e4d4e;stroke-linecap: round;stroke-linejoin: round;stroke-width: 8px"/>
  <rect x="424.5" y="173.04" width="144.87" height="196.5" style="fill: none;stroke: #4e4d4e;stroke-linecap: round;stroke-linejoin: round;stroke-width: 8px"/>
  <rect x="478.69" y="381.97" width="36.5" height="6.57" rx="2.25" ry="2.25" style="fill: #4e4d4e"/>
  <path d="M534.17,329.25s26.74-9.88,20.65-35.38c0,0-3.79-9.35-7.76,5.91-1.74,6.69-7.73,12.66-12.43,13.63" style="fill: none;stroke: #4e4d4e;stroke-linecap: round;stroke-linejoin: round;stroke-width: 7px"/>
  <rect x="478.48" y="241.56" width="4.77" height="9.61" rx="2.03" ry="2.03" style="fill: #4e4d4e"/>
  <rect x="501.21" y="241.56" width="4.77" height="9.61" rx="2.03" ry="2.03" style="fill: #4e4d4e"/>
  <circle cx="492.68" cy="257.42" r="4.82" style="fill: #4e4d4e"/>
  <path d="M506.21,270.41a45.76,45.76,0,0,1-26.61.14" style="fill: none;stroke: #4e4d4e;stroke-linecap: round;stroke-linejoin: round;stroke-width: 5px"/>
  <line x1="492.68" y1="271.46" x2="492.68" y2="261.29" style="fill: none;stroke: #4e4d4e;stroke-linecap: round;stroke-linejoin: round;stroke-width: 5px"/>
  <path d="M524.48,219.23c-.11-2.74,4-10.64,2.42-11s-11.21-2-16.42-2.67c-1.74-.22-2,2.62-2.23,3.27-1.78,6.21-4.35,10.9-9.42,10.93s-7.79.06-14.55,0-9.11-4.1-11.29-10.37c-2.23-6.44-3.34-12-6.82-12-3.79,0-4.9,5-5.53,11.68-.39,4.12-11.22,104.91-11.22,111.38v2.2a22.2,22.2,0,0,0,22.13,22.13H513a22.2,22.2,0,0,0,22.13-22.13v-2.2C535.16,314.67,524.6,222.23,524.48,219.23Z" style="fill: none;stroke: #4e4d4e;stroke-linecap: round;stroke-linejoin: round;stroke-width: 7px"/>
  <path d="M526.89,208.26c-1.64-.29-16.69-2.68-16.81-2.66,1.4,6,4,17.85,8,18.43S528.15,208.48,526.89,208.26Z" style="fill: none;stroke: #4e4d4e;stroke-linecap: round;stroke-linejoin: round;stroke-width: 7px"/>
  <path d="M500.58,312.57l-.1,22.22c-3.12,1.11-5.32,4.86-5.32,7.78,0,3.94,4,7.17,8.88,7.17h3.9c4.88,0,8.88-3.23,8.88-7.17,0-2.93-1.17-5.39-3.07-6.56l.42-23.43" style="fill: #fff;stroke: #4e4d4e;stroke-linecap: round;stroke-linejoin: round;stroke-width: 7px"/>
  <path d="M485.39,312.57l.1,22.22c3.12,1.11,5.32,4.86,5.32,7.78,0,3.94-4,7.17-8.87,7.17H478c-4.88,0-8.87-3.23-8.87-7.17,0-2.93,1.17-5.39,3.07-6.56l-.42-23.43" style="fill: #fff;stroke: #4e4d4e;stroke-linecap: round;stroke-linejoin: round;stroke-width: 7px"/>
  <path d="M127.13,278.74" style="fill: #3a9939"/>
  <path d="M142.78,338.47" style="fill: #3a9939"/>
  <path d="M198.51,363.67a14.15,14.15,0,0,0-5.62-13.39c-7.24-5.45-20-10.05-47.88,11.8l-1.5-.82,21.11-84.51a15.56,15.56,0,1,0-30.19-7.54l-6.52,26.1,0,.16L125.24,306a15.48,15.48,0,0,0-20.36-1.82,15.53,15.53,0,0,0-28.33.85,15.54,15.54,0,0,0-26.75,6.52L30.37,389.35a3.63,3.63,0,0,0-.11.94L30.62,411,24.75,434a3.64,3.64,0,0,0,2.62,4.43h0a3.64,3.64,0,0,0,4.41-2.63l6-23.42a3.63,3.63,0,0,0,.11-1l-.36-20.75,19.31-77.3a8.28,8.28,0,1,1,16.06,4l-1.37,5.5a3.64,3.64,0,0,0,2.65,4.41l.17,0,.17.06a3.64,3.64,0,0,0,4.41-2.65L82.87,309a8.28,8.28,0,1,1,16.06,4L95,328.71a3.64,3.64,0,1,0,7.06,1.76l3.92-15.7a8.28,8.28,0,0,1,16.06,4l-3.6,14.43v0l-.76,3a3.64,3.64,0,1,0,7.06,1.76L135,297.09l0-.16,6.48-26a8.28,8.28,0,1,1,16.06,4l-21.79,87.24a3.64,3.64,0,0,0,1.78,4.07l6.09,3.33a3.64,3.64,0,0,0,4-.36c28.12-22.74,37.7-15.54,40.84-13.17a6.9,6.9,0,0,1,2.82,6.38c-.38,2.29-2.23,4-5.35,5-21.16,6.89-39.18,26.26-41.67,29l-42.19,31.11a3.64,3.64,0,0,0-1.37,2l-5.76,23a3.64,3.64,0,1,0,7.06,1.76l5.44-21.77,41.44-30.56a3.63,3.63,0,0,0,.57-.52c.18-.2,18.28-20.56,38.73-27.21C193.93,372.59,197.68,368.66,198.51,363.67Z" style="fill: #4e4d4e"/>
  <path d="M358.61,319.76h-10.5a13.34,13.34,0,0,1-8.57-3.11h-120a14.18,14.18,0,0,1-9.74,3.9h-4.1a4,4,0,0,0,4,4.1H359.45a4,4,0,0,0,4-4.21l-.08-1.57A13.27,13.27,0,0,1,358.61,319.76Z" style="fill: #4e4d4e"/>
  <path d="M496.16,70.93V143.7h8V70.93a20.29,20.29,0,0,0-20.27-20.27H97.42A20.29,20.29,0,0,0,77.16,70.93V303.76a15.61,15.61,0,0,1,8-7.19V70.93A12.28,12.28,0,0,1,97.42,58.66H483.89A12.28,12.28,0,0,1,496.16,70.93Z" style="fill: #4e4d4e"/>
  <path d="M424.5,341.66H148.4l-2,8h18.07c14.11-6.51,22.25-3.7,27.56,0H424.5Z" style="fill: #4e4d4e"/>
  <polygon points="425.91 316.66 150.4 316.66 148.43 324.66 425.91 324.66 425.91 316.66" style="fill: #4e4d4e"/>
  <path d="M465.66,143.7h8v-64a4,4,0,0,0-4-4h-358a4,4,0,0,0-4,4V306.48a8.78,8.78,0,0,1,8-2.06V83.66h350Z" style="fill: #4e4d4e"/>
  <path id="as1-heart" d="M24.64,129.37a4,4,0,0,1-1.56-.32c-4.79-2-14.25-8.49-19.24-17.18S-.37,97,1.18,93.38a14.55,14.55,0,0,1,10.06-8.32c5.57-1.39,10.4,1.53,13.4,4.11,3-2.58,7.83-5.5,13.4-4.11h0A14.54,14.54,0,0,1,48.1,93.38c1.55,3.63,2.34,9.79-2.66,18.49S31,127,26.2,129.05A4,4,0,0,1,24.64,129.37ZM14.12,92.71a3.9,3.9,0,0,0-.94.11,6.64,6.64,0,0,0-4.64,3.7c-1.18,2.77-.38,6.81,2.24,11.37,3.55,6.19,10.13,11,13.87,13,3.74-2.05,10.31-6.84,13.87-13,2.62-4.56,3.41-8.6,2.23-11.37a6.64,6.64,0,0,0-4.64-3.7h0c-3.3-.82-7.18,3.07-8.29,4.49a4,4,0,0,1-3.17,1.56h0a4,4,0,0,1-3.18-1.58C20.46,96,17.18,92.71,14.12,92.71Z" style="fill: #4e4d4e"/>
  <g id="as1-mung">
    <path d="M157.74,211.78l-15.66-22.94a52.43,52.43,0,1,0-10.43,17.69Z" style="fill: #d7dc91;stroke: #4e4d4e;stroke-linecap: round;stroke-linejoin: round;stroke-width: 8px"/>
    <path d="M111.91,185.77c-2.68-.08-5.44-1.56-7.4-5l-.29-.58L83,180.24l-.19.4c-2.82,5.12-9.09,5.7-13.15,3.66a7.23,7.23,0,0,1-4.24-5.71c-.22-2.3.76-4.83,3.13-7.43l.41-.42-.3-.27c-4.24-4.33-2.67-9.51.93-12s9.1-2.25,12.38,3.5l.3.58,21.23-.06.19-.4c2.82-5.12,9.09-5.7,13.15-3.66a7.26,7.26,0,0,1,4.24,5.72c.21,2.3-.76,4.83-3.14,7.43l-.41.42.3.27c4.24,4.33,2.67,9.52-.93,12A8.24,8.24,0,0,1,111.91,185.77Z" style="fill: #f6f6f6;stroke: #4e4d4e;stroke-linecap: round;stroke-linejoin: round;stroke-width: 8px"/>
  </g>
  <g id="as1-line">
    <line x1="483.13" y1="4" x2="485.96" y2="25.66" style="fill: none;stroke: #4e4d4e;stroke-linecap: round;stroke-linejoin: round;stroke-width: 8px"/>
    <line x1="513.31" y1="7.72" x2="504.93" y2="27.9" style="fill: none;stroke: #4e4d4e;stroke-linecap: round;stroke-linejoin: round;stroke-width: 8px"/>
    <line x1="537.04" y1="26.39" x2="519.69" y2="39.67" style="fill: none;stroke: #4e4d4e;stroke-linecap: round;stroke-linejoin: round;stroke-width: 8px"/>
  </g>
</svg>
