<svg xmlns="http://www.w3.org/2000/svg" viewBox="0 0 421.44 73.94">
  <title>header-logo</title>
  <g id="bfc8b6ef-a171-4fcd-839a-0b1a36f2dd3a" data-name="Layer 2">
    <g id="9960590f-8cd0-46e3-8ab9-bd38c5fd9433" data-name="Layer 1">
      <g id="9f6242c9-eb80-4e4f-9bee-1e0471eab48f" data-name="&lt;Group&gt;">
        <polygon id="56140800-70c9-4d20-8313-aff1a8df7427" data-name="&lt;Path&gt;" points="391.86 73.94 0 73.94 0 0 421.44 0 391.86 73.94" style="fill: #bb1530"/>
        <path id="7c702dd8-e42d-430e-b025-9828784695b8" data-name="&lt;Path&gt;" d="M68.85,55.94c-12.92,0-17.09-8.59-17.09-17.79,0-11.72,6.14-19.94,18.51-19.94a30.7,30.7,0,0,1,7.84,1l-.5,6.12a27.11,27.11,0,0,0-7.68-1.13c-7.11,0-10.61,5.36-10.61,12.75,0,8.29,3.44,12.92,11.12,12.92a20.08,20.08,0,0,0,7.39-1.58l.55,6a28.71,28.71,0,0,1-9.53,1.64" style="fill: #fff"/>
        <polygon id="b489ee6b-fd3b-4e54-a7da-bb53f8b5c638" data-name="&lt;Path&gt;" points="109.5 55.45 109.5 39.41 93.84 39.41 93.84 55.45 86.72 55.45 86.72 18.48 93.84 18.48 93.84 33.27 109.5 33.27 109.5 18.48 116.63 18.48 116.63 55.45 109.5 55.45" style="fill: #fff"/>
        <path id="9ed08489-8d18-424e-b6c5-66eff333c5d2" data-name="&lt;Path&gt;" d="M139.57,56.05c-11.67,0-14.29-6.35-14.29-13.42V18.48h7.11V42.19c0,4.66,1.54,8.09,7.67,8.09,5.48,0,7.79-2.45,7.79-8.74V18.48h7.07V41.1c0,10.13-5.59,15-15.34,15" style="fill: #fff"/>
        <polygon id="f64eca2f-d475-4a72-b1f6-d94530b87ea3" data-name="&lt;Path&gt;" points="183.27 55.45 173.97 36.4 169.24 25.58 169.01 25.58 169.29 38.08 169.34 55.45 163.18 55.45 163.18 18.48 171.99 18.48 180.96 36.27 186.76 48.52 186.98 48.52 186.66 37.92 186.6 18.48 192.76 18.48 192.76 55.45 183.27 55.45" style="fill: #fff"/>
        <path id="9766a83f-f3c5-4355-b273-97a6753d155f" data-name="&lt;Compound Path&gt;" d="M255.7,55.48c-3.8,0-7.11-.16-10.2-.27V18.72c2.88-.12,7.32-.27,11.82-.27,11.33,0,18.54,5,18.54,17.89,0,12.58-8.24,19.14-20.17,19.14m1-32c-1.7,0-3.29.06-4.48.17V50a25.32,25.32,0,0,0,4,.29c7.2,0,12.42-4.15,12.42-13.41,0-8.39-3.23-13.37-12-13.37" style="fill: #fff"/>
        <path id="6fab09cb-24dc-4251-aeed-9fa33227a803" data-name="&lt;Compound Path&gt;" d="M305.47,55.28l-2.33-7.16H288.31L286,55.28h-6.81L292,18.48h8L313,55.28ZM297.7,31a49.26,49.26,0,0,1-1.92-6.65h-.22q-.72,3.21-2,7L289.81,43h11.78Z" style="fill: #fff"/>
        <polygon id="b25d1c2b-9f6d-4d27-aa4d-2b36552fb1f3" data-name="&lt;Path&gt;" points="341.39 55.45 341.39 39.41 325.73 39.41 325.73 55.45 318.61 55.45 318.61 18.48 325.73 18.48 325.73 33.27 341.39 33.27 341.39 18.48 348.51 18.48 348.51 55.45 341.39 55.45" style="fill: #fff"/>
        <path id="febac71a-72f1-4e4c-9138-1500a91282b8" data-name="&lt;Path&gt;" d="M217,56c-11.33,0-17.66-7.09-17.66-18.23,0-5.67,1.86-10.5,5.37-14S213,18.3,219,18.3a36.26,36.26,0,0,1,10,1.5l-.61,5.56a27.19,27.19,0,0,0-9.72-1.59c-7.83,0-12.59,5.24-12.59,13.35s4.11,13.35,11.82,13.35a15.35,15.35,0,0,0,4.76-.81l.46-.15v-9h-7l0-5.4h13.11V53.79A33.62,33.62,0,0,1,217,56" style="fill: #fff"/>
        <path id="feb1e3e7-da40-427a-8a33-866d79507cd5" data-name="&lt;Path&gt;" d="M391.72,18.48H384l-5.4,19.12c-.4,1.28-2.15,8.63-2.15,8.63H376s-1.86-7.71-2.15-8.63l-5.39-19.12h-7.76l-5.3,37H362l2.26-17.64c.35-2.63,1.22-11,1.22-11h.26s1.79,8.69,2.5,11.38L373,55.45h6.46l4.72-17.3c.7-2.69,2.5-11.38,2.5-11.38h.26s.85,8.31,1.22,11l2.26,17.64H397Z" style="fill: #fff"/>
      </g>
    </g>
  </g>
</svg>
